<?xml version="1.0" standalone="no"?><!DOCTYPE svg PUBLIC "-//W3C//DTD SVG 1.1//EN" "http://www.w3.org/Graphics/SVG/1.1/DTD/svg11.dtd"><svg t="1675304936741" class="icon" viewBox="0 0 1024 1024" version="1.1" xmlns="http://www.w3.org/2000/svg" p-id="3709" xmlns:xlink="http://www.w3.org/1999/xlink" width="200" height="200"><path d="M764.623601 614.074793l-223.00912 223.00912c-3.837398 3.837398-9.046027 5.996574-14.479783 5.996574-5.423523 0-10.632151-2.159176-14.46955-5.996574l-223.019353-223.019353c-7.992021-7.992021-7.992021-20.957311 0-28.949332s20.957311-7.992021 28.949332 0l188.073446 188.083679 0-604.753497c0-11.307533 9.15859-20.466124 20.466124-20.466124 11.2973 0 20.466124 9.15859 20.466124 20.466124l0 604.753497 188.073446-188.063213c7.992021-7.992021 20.957311-8.002254 28.949332-0.010233C772.615623 593.127715 772.615623 606.082772 764.623601 614.074793z" p-id="3710"></path></svg>